<?xml version="1.0" encoding="UTF-8" standalone="no"?><!DOCTYPE svg PUBLIC "-//W3C//DTD SVG 1.1//EN" "http://www.w3.org/Graphics/SVG/1.1/DTD/svg11.dtd"><svg width="100%" height="100%" viewBox="0 0 3334 3334" version="1.1" xmlns="http://www.w3.org/2000/svg" xmlns:xlink="http://www.w3.org/1999/xlink" xml:space="preserve" xmlns:serif="http://www.serif.com/" style="fill-rule:evenodd;clip-rule:evenodd;stroke-linecap:round;stroke-linejoin:round;"><g><clipPath id="_clip1"><circle cx="1666.67" cy="1666.67" r="1666.67"/></clipPath><g clip-path="url(#_clip1)"><circle cx="1666.67" cy="1666.67" r="1666.67" style="fill:#fff;"/><g><path d="M1533.06,722.463c572.109,-623.732 504.584,-92.137 658.8,-15.007c43.767,21.898 102.509,-1.148 134.75,-14.981" style="fill:none;fill-rule:nonzero;stroke:#000;stroke-width:133.33px;"/><path d="M1833.07,882.258c183.025,-217.185 488.916,309.9 512.9,114.934" style="fill:none;fill-rule:nonzero;stroke:#000;stroke-width:133.33px;"/><path d="M1310.48,529.208c-297.85,91.297 -428.383,445.125 -297.875,705.384" style="fill:none;fill-rule:nonzero;stroke:#000;stroke-width:133.33px;"/><path d="M921.2,1427.84c-111.017,157.85 -3.525,191.725 127.992,144.75" style="fill:none;fill-rule:nonzero;stroke:#000;stroke-width:133.33px;"/><path d="M1049.9,1607.67c-33.942,560.95 1167.85,1269.01 1247.68,-54.208" style="fill:none;fill-rule:nonzero;stroke:#000;stroke-width:133.33px;"/><path d="M1473.67,1242.12c129.208,-4.95 661.566,-70.575 760.166,-13.867c189.167,108.759 74.492,429.025 -154.675,459.925c-195.833,26.4 -288.341,-469.383 -264.85,-466.083c56.375,7.925 38.35,361.258 -65.508,466.083c-226.5,228.609 -477.2,-196.141 -347.617,-410.983" style="fill:none;fill-rule:nonzero;stroke:#000;stroke-width:133.33px;"/><path d="M325,3215.92c253.133,-261.384 780.408,-809.667 1135.23,-809.667c43.142,75.567 176.167,226.708 363.184,226.708c187.016,0 233.766,-151.141 233.766,-226.708c467.542,0 835.442,690.408 951.15,833.333" style="fill:none;fill-rule:nonzero;stroke:#000;stroke-width:133.33px;"/></g><path d="M1666.67,0c919.858,0 1666.67,746.808 1666.67,1666.67c0,919.858 -746.808,1666.67 -1666.67,1666.67c-919.859,0 -1666.67,-746.808 -1666.67,-1666.67c0,-919.859 746.808,-1666.67 1666.67,-1666.67Zm-0,133.333c-846.27,0 -1533.33,687.064 -1533.33,1533.33c0,846.269 687.064,1533.33 1533.33,1533.33c846.269,0 1533.33,-687.064 1533.33,-1533.33c0,-846.27 -687.064,-1533.33 -1533.33,-1533.33Z"/></g></g></svg>